<svg xmlns="http://www.w3.org/2000/svg" xmlns:xlink="http://www.w3.org/1999/xlink" viewBox="0 0 24 24" version="1.1">
  <path d="m3,13c0,5,4,9,9,9s9-4,9-9h-1.9c.034,3.9-3.1,7.2-7.1,7.2-3.9.033-7.2-3.1-7.2-7.1-.031-3.6,2.6-6.6,6.1-7.1v2l3.7-2.4c.307-.197.4-.606.2-.912-.051-.08-.119-.147-.198-.198l-3.7-2.5v2.1c-4.6.509-8,4.4-8,8.9zm4-4v2h1v6h2v-7c0-.552-.448-1-1-1zm7,0h-1c-1.1,0-2,.895-2,2v4c0,1.1.895,2,2,2h1c1.1,0,2-.895,2-2v-4c0-1.1-.895-2-2-2zm-1,6h1v-4h-1z" class="large-icon" style="fill: white;" fill-rule="evenodd" id="fast-forward-ten-icon-large"/>
</svg>