<svg xmlns="http://www.w3.org/2000/svg" xmlns:xlink="http://www.w3.org/1999/xlink" viewBox="0 0 24 24" version="1.1">
  <path d="M12,9a3,3,0,1,0,3,3A3,3,0,0,0,12,9Zm0,5.13A2.13,2.13,0,1,1,14.12,12,2.12,2.12,0,0,1,12,14.13Zm7.91-2.87L22,9.38,19.26,4.62,16.6,5.5a1,1,0,0,1-1.29-.75L14.74,2H9.26L8.69,4.75A1,1,0,0,1,7.4,5.5L4.74,4.62,2,9.38l2.09,1.87a1,1,0,0,1,0,1.49L2,14.62l2.74,4.76L7.4,18.5a1,1,0,0,1,1.29.75L9.26,22h5.48l0.57-2.75a1,1,0,0,1,1.29-.75l2.66,0.88L22,14.62l-2.09-1.87A1,1,0,0,1,19.91,11.25ZM18.4,17.12l-1.22-.4a2.86,2.86,0,0,0-3.7,2.14l-0.26,1.26H10.78l-0.26-1.26a2.86,2.86,0,0,0-3.7-2.14l-1.22.4L4.38,15l1-.86a2.88,2.88,0,0,0,0-4.29L4.38,9,5.6,6.88l1.22,0.4a2.86,2.86,0,0,0,3.7-2.14l0.26-1.26h2.44l0.26,1.26a2.86,2.86,0,0,0,3.7,2.14l1.22-.4L19.62,9l-1,.86a2.88,2.88,0,0,0,0,4.29l1,0.86Z" class="large-icon" style="fill: white" id="gear-icon-large"/>
</svg>